<svg xmlns="http://www.w3.org/2000/svg" viewBox="0 0 400 250" fill="none">
  <defs>
    <linearGradient id="card-bg" x1="0%" y1="0%" x2="100%" y2="100%">
      <stop offset="0%" stop-color="#111"/>
      <stop offset="100%" stop-color="#0a0a0a"/>
    </linearGradient>
  </defs>
  <rect width="400" height="250" fill="url(#card-bg)"/>
  <!-- Red accent top -->
  <rect width="400" height="3" fill="#e62429" opacity="0.5"/>
  <!-- Web corner -->
  <path d="M0 250 L80 250 L80 0" stroke="#e62429" stroke-width="0.5" opacity="0.08"/>
  <path d="M0 220 L50 220 L50 0" stroke="#e62429" stroke-width="0.5" opacity="0.08"/>
  <!-- Code lines -->
  <rect x="60" y="50" width="280" height="24" rx="4" fill="#1a1a1a"/>
  <rect x="60" y="50" width="40" height="24" rx="4" fill="#e62429" opacity="0.15"/>
  <rect x="60" y="90" width="200" height="10" rx="3" fill="#1a1a1a"/>
  <rect x="60" y="110" width="240" height="10" rx="3" fill="#1a1a1a"/>
  <rect x="60" y="130" width="160" height="10" rx="3" fill="#1a1a1a"/>
  <!-- Tags -->
  <rect x="60" y="160" width="60" height="22" rx="11" fill="rgba(230,36,41,0.08)" stroke="rgba(230,36,41,0.2)" stroke-width="0.5"/>
  <rect x="130" y="160" width="60" height="22" rx="11" fill="rgba(230,36,41,0.08)" stroke="rgba(230,36,41,0.2)" stroke-width="0.5"/>
  <rect x="200" y="160" width="60" height="22" rx="11" fill="rgba(230,36,41,0.08)" stroke="rgba(230,36,41,0.2)" stroke-width="0.5"/>
  <!-- Button -->
  <rect x="60" y="200" width="100" height="30" rx="4" fill="#e62429" opacity="0.8"/>
  <rect x="170" y="200" width="100" height="30" rx="4" fill="none" stroke="#e62429" stroke-width="0.5" opacity="0.5"/>
  <!-- Spider icon -->
  <g transform="translate(340,30) scale(0.6)" fill="#e62429" opacity="0.06">
    <ellipse cx="0" cy="8" rx="8" ry="12"/>
    <ellipse cx="0" cy="-6" rx="6" ry="8"/>
    <path d="M-5,-3 Q-15,-15 -20,-8" stroke="#e62429" stroke-width="1.5" fill="none"/>
    <path d="M-6,-1 Q-18,-8 -22,-2" stroke="#e62429" stroke-width="1.5" fill="none"/>
    <path d="M-6,1 Q-18,0 -22,4" stroke="#e62429" stroke-width="1.5" fill="none"/>
    <path d="M-5,3 Q-15,5 -18,10" stroke="#e62429" stroke-width="1.5" fill="none"/>
    <path d="M5,-3 Q15,-15 20,-8" stroke="#e62429" stroke-width="1.5" fill="none"/>
    <path d="M6,-1 Q18,-8 22,-2" stroke="#e62429" stroke-width="1.5" fill="none"/>
    <path d="M6,1 Q18,0 22,4" stroke="#e62429" stroke-width="1.5" fill="none"/>
    <path d="M5,3 Q15,5 18,10" stroke="#e62429" stroke-width="1.5" fill="none"/>
  </g>
  <text x="200" y="128" text-anchor="middle" fill="#e62429" font-size="14" font-family="Inter, sans-serif" font-weight="700" opacity="0.15">PROJECT</text>
</svg>
